<svg width="183" height="35" viewBox="0 0 183 35" fill="none" xmlns="http://www.w3.org/2000/svg">
<path fill-rule="evenodd" clip-rule="evenodd" d="M9.39873 4.45383H7.99741C5.87825 4.45383 3.82784 5.9659 3.82784 10.3509C3.82784 14.5883 5.7084 15.953 7.99741 15.953H9.39873V4.45383ZM7.21183 18.312L3.04124 28.4096H0L4.58006 17.6113C2.42652 16.4311 0.99083 14.2945 0.99083 10.3509C0.99083 4.82262 4.23833 2.05788 8.10054 2.05788H12.0315V28.4096H9.39873V18.312H7.21183ZM59.4802 19.0668C59.4802 13.1304 61.4527 9.3367 65.2694 9.3367C66.7253 9.3367 67.5645 9.78784 68.2763 10.314L67.9204 13.0923C67.242 12.4162 66.2714 11.7782 65.237 11.7782C63.4253 11.7782 62.1322 14.1446 62.1322 18.9155C62.1322 23.6484 63.1028 26.353 65.1399 26.353C66.3685 26.353 67.3067 25.79 67.888 25.1888L68.4704 27.3684C67.5979 28.2326 66.5625 28.7944 65.0753 28.7944C61.5821 28.7944 59.4802 25.5269 59.4802 19.0668ZM52.1065 19.1036V28.5325H49.582V9.59977H52.1055V18.3526L56.0183 9.59977H58.5732L54.5301 18.5026L59.1556 28.5325H56.4055L52.1055 19.1036H52.1065ZM40.2368 17.3383H44.4084C44.4084 14.1076 43.9554 11.7413 42.5006 11.7413C40.9475 11.7413 40.3976 13.9577 40.2357 17.3383H40.2368ZM43.0172 28.7956C39.6544 28.7956 37.5848 25.6768 37.5848 19.8548C37.5848 13.7697 39.0407 9.3367 42.5006 9.3367C45.2172 9.3367 46.9957 11.7031 46.9957 18.1263V19.7417H40.2045C40.2045 24.0247 41.2387 26.2792 43.2446 26.2792C44.6672 26.2792 45.7996 25.5269 46.4467 25.0008L47.0281 27.2552C45.9937 28.1945 44.6349 28.7956 43.0182 28.7956H43.0172ZM32.2799 11.9662H29.467V12.3043C29.467 16.286 29.3053 22.1094 27.9465 26.128H32.2808V11.9662H32.2799ZM36.0642 32.2512H33.8004V28.5325H26.814V32.2512H24.5514V26.1293H25.5533C27.0416 22.1094 27.2033 16.2492 27.2033 11.2151V9.59977H34.771V26.128H36.0652V32.2512H36.0642ZM23.0954 9.59977V28.5313H20.6053V20.0428H16.8542V28.5325H14.3307V9.59977H16.8542V17.6395H20.6053V9.59977H23.0954ZM86.5359 1.63991H79.502V28.6001H77.851V0H88.1879V28.6001H86.5359V1.64114V1.63991ZM96.5422 27.4803C97.5997 27.4803 98.4471 26.7144 99.0861 25.1814C99.7238 23.6472 100.043 21.2808 100.043 18.0809C100.043 15.4132 99.7686 13.348 99.2175 11.8802C98.6674 10.4136 97.9081 9.67968 96.9385 9.67968C96.5645 9.67968 96.2065 9.79405 95.8659 10.0202C95.5111 10.2596 95.1882 10.5629 94.9084 10.92C94.6112 11.2938 94.3412 11.7265 94.0995 12.2207C93.8575 12.713 93.6476 13.2276 93.4717 13.7598V25.04C93.8013 25.8674 94.2098 26.4808 94.693 26.8803C95.1784 27.2799 95.7951 27.4803 96.5432 27.4803H96.5422ZM96.4431 28.9604C95.8404 28.9704 95.2449 28.7985 94.7102 28.46C94.2244 28.1591 93.801 27.7283 93.4717 27.2V34.8402H91.9197V8.44052H93.2735L93.405 11.7597C93.779 10.8008 94.2745 9.94025 94.8912 9.18058C95.5079 8.41962 96.2783 8.03976 97.2034 8.03976C97.8859 8.03976 98.5016 8.28071 99.0527 8.76014C99.6023 9.23958 100.065 9.91321 100.44 10.7799C100.814 11.6466 101.1 12.6866 101.298 13.9C101.496 15.1133 101.596 16.4533 101.596 17.9198C101.596 21.6275 101.122 24.3934 100.175 26.2202C99.2286 28.047 97.985 28.9616 96.4441 28.9616L96.4431 28.9604ZM107.837 27.4803C108.607 27.4803 109.263 27.0942 109.802 26.321C110.341 25.5465 110.765 24.6135 111.073 23.5207V17.9604H109.289C107.903 17.9604 106.88 18.36 106.219 19.1602C105.559 19.9592 105.229 21.2402 105.229 23.0006C105.229 24.4402 105.465 25.5465 105.938 26.3198C106.412 27.0942 107.044 27.4803 107.836 27.4803H107.837ZM111.536 28.6001C111.455 28.2631 111.384 27.9228 111.321 27.5798C111.227 27.0194 111.166 26.4517 111.139 25.8809C110.743 26.8398 110.248 27.6007 109.653 28.16C109.059 28.7206 108.343 29.0009 107.507 29.0009C106.385 29.0009 105.469 28.4871 104.766 27.4606C104.061 26.4341 103.709 25.0008 103.709 23.1604C103.709 21.0005 104.183 19.3667 105.129 18.2603C106.075 17.154 107.451 16.6008 109.257 16.6008H111.073V14.0806C111.073 12.5329 110.843 11.413 110.38 10.7197C109.918 10.0264 109.224 9.67968 108.3 9.67968C107.596 9.67968 106.935 9.87396 106.318 10.2599C105.702 10.6472 105.196 11.1868 104.798 11.8802L104.37 10.0805C104.7 9.54692 105.201 9.07239 105.872 8.66057C106.544 8.24629 107.353 8.03976 108.299 8.03976C109.686 8.03976 110.748 8.51305 111.486 9.45963C112.225 10.4062 112.592 11.8802 112.592 13.8802V24.8803C112.592 25.5736 112.625 26.2743 112.692 26.98C112.758 27.6868 112.845 28.2277 112.956 28.6001H111.536ZM117.712 28.6001H116.158V8.43929H117.712V17.9198L123.292 8.44052H124.811L119.329 17.8006L125.207 28.6001H123.49L117.712 18.1608V28.6001ZM131.152 10.0005V28.6001H129.6V10.0005H125.736V8.43929H134.984V10.0005H131.151H131.152ZM145.121 14.5613C145.121 14.0265 145.132 13.5409 145.155 13.0996C145.177 12.6608 145.21 12.2268 145.253 11.8003H145.155C145.047 12.244 144.915 12.6782 144.759 13.0996C144.596 13.5347 144.431 13.9683 144.263 14.4003L138.847 28.6001H137.526V8.43929H138.979V22.4412C138.983 23.3902 138.939 24.3385 138.848 25.281H138.946C139.056 24.8261 139.188 24.3799 139.342 23.9411C139.497 23.5009 139.661 23.0535 139.837 22.6011L145.253 8.43929H146.608V28.6001H145.121V14.5613ZM151.891 28.6001H150.339V8.43929H151.891V17.9198L157.472 8.44052H158.991L153.51 17.8006L159.388 28.6001H157.67L151.891 18.1608V28.6001ZM161.633 35C161.458 35 161.298 34.9939 161.154 34.9804C161.027 34.9695 160.9 34.9493 160.775 34.9201L160.61 33.161C160.741 33.2138 160.89 33.2544 161.056 33.2802C161.221 33.3072 161.413 33.3207 161.633 33.3207C162.206 33.3207 162.69 33.0073 163.086 32.3803C163.482 31.7534 163.802 30.8806 164.044 29.7607L164.176 29.1607L160.048 8.44052H161.6L164.242 21.6004C164.397 22.3748 164.528 23.1334 164.639 23.8808C164.75 24.627 164.848 25.3867 164.935 26.16H165.035C165.145 25.3609 165.266 24.5865 165.398 23.8402C165.53 23.0941 165.674 22.3466 165.828 21.6004L168.404 8.44052H169.791L165.529 29.6389C165.397 30.3323 165.226 30.9998 165.018 31.639C164.824 32.246 164.562 32.818 164.241 33.3392C163.944 33.82 163.574 34.2273 163.151 34.539C162.734 34.8464 162.227 34.9988 161.632 34.9988L161.633 35ZM174.15 14.3597C174.018 13.8275 173.918 13.327 173.853 12.86C173.787 12.3928 173.698 11.9072 173.589 11.4007H173.457C173.5 11.9331 173.539 12.4739 173.572 13.0197C173.605 13.5668 173.622 14.1999 173.622 14.9203V28.6001H172.3V8.43929H174.118L177.023 20.7608C177.199 21.48 177.32 22.0933 177.387 22.5999C177.452 23.1076 177.507 23.6276 177.552 24.1611H177.683C177.727 23.6276 177.788 23.1076 177.865 22.5999C177.942 22.0933 178.068 21.4812 178.244 20.7608L181.217 8.44052H183V28.6014H181.514V14.9191C181.508 13.7304 181.552 12.5422 181.646 11.359H181.514C181.426 11.9196 181.343 12.4395 181.266 12.919C181.19 13.3983 181.095 13.879 180.987 14.3585L178.212 26.1994H176.924L174.149 14.3585L174.15 14.3597Z" fill="#4F4F4F"/>
</svg>
